<svg width="40" height="40" viewBox="0 0 40 40" fill="none" xmlns="http://www.w3.org/2000/svg">
<path d="M40 20C40 31.0457 31.0457 40 20 40C8.9543 40 0 31.0457 0 20C0 8.9543 8.9543 0 20 0C31.0457 0 40 8.9543 40 20Z" fill="#797979"/>
<path d="M25.8973 13.3365C25.8879 13.3503 25.9067 13.3641 25.9161 13.3503C26.0641 13.2096 26.1448 13.0096 26.1354 12.8027C26.126 12.5957 26.0278 12.404 25.8664 12.2784C25.8569 12.2674 25.8502 12.2522 25.8515 12.2356C25.8515 12.2205 25.8583 12.2053 25.869 12.1956C26.2646 11.808 26.8417 11.6935 27.3503 11.899C27.8521 12.1915 28.1226 12.7751 28.0284 13.3586C27.9854 13.7959 27.7351 14.1849 27.3598 14.3974C27.3396 14.4098 27.314 14.4002 27.3073 14.3767C27.1943 13.9725 26.8041 13.7173 26.3992 13.7821C26.3305 13.7863 26.2646 13.8111 26.2095 13.8525C26.2054 13.858 26.2054 13.8649 26.2068 13.8704C26.2095 13.8759 26.2148 13.8801 26.2216 13.8801C26.5902 13.8525 26.9158 14.127 26.9629 14.5022C27.0342 15.1782 26.3911 15.6487 25.7964 15.6528H25.7951C25.7816 15.6528 25.7709 15.6418 25.7695 15.6266C25.7668 15.5659 25.7641 15.5135 25.7641 15.4721C25.7655 15.1396 25.6323 14.8209 25.3955 14.5933C25.1896 14.3822 24.895 14.2925 24.6111 14.3532C24.5533 14.3643 24.4995 14.3891 24.4537 14.4264C24.4457 14.4333 24.451 14.4457 24.4605 14.4457C24.7914 14.407 25.1116 14.585 25.261 14.8899C25.5045 15.4555 25.2838 16.1191 24.7551 16.4157C24.4658 16.5605 24.1375 16.6047 23.8214 16.5412C23.477 16.435 23.1191 16.3853 22.7612 16.3964C21.8948 16.4929 21.506 17.1882 21.51 18.027C21.51 18.0367 21.5195 18.0435 21.5289 18.0394L22.3132 17.6835C22.3199 17.6807 22.3294 17.6835 22.3334 17.6904C22.6469 18.1994 23.0222 18.7788 23.4581 19.4286C24.1523 20.4619 24.9139 21.4469 25.7359 22.3754C26.1799 22.8831 26.6534 23.3618 27.1539 23.8087C27.4674 24.0847 27.9073 24.402 28.2262 24.671C28.6823 25.0945 29.0496 25.6077 29.3065 26.1816C29.4935 26.601 29.8205 26.9376 30.2281 27.1321C30.5914 27.2466 30.9614 27.3321 31.3381 27.3845C31.6448 27.4411 31.9301 27.5887 32.1561 27.8081C32.4978 28.1378 32.67 28.6109 32.9956 28.9738C33.005 28.9834 32.9983 28.9986 32.9848 29H7.02977C7.01901 29 7.00824 28.9917 7.00286 28.9821C6.99748 28.971 7.00017 28.9572 7.0069 28.949C7.09031 28.8469 7.18449 28.7544 7.28943 28.6744C7.81546 28.2881 8.4949 27.964 8.95098 27.6673C9.25773 27.4645 9.51334 27.19 9.69499 26.8644C10.0165 26.3112 10.3071 25.8422 10.5654 25.4559C10.6489 25.3221 10.7484 25.1993 10.8601 25.0903C10.9664 25.0075 11.0834 24.9372 11.2072 24.8834C11.9377 24.5606 12.6454 24.1853 13.3262 23.7618C13.6786 23.5383 13.9948 23.261 14.2666 22.9396C14.3917 22.7658 14.5034 22.5823 14.5989 22.3905C14.6944 22.225 14.8088 22.0705 14.9393 21.9311C15.1169 21.7325 15.3712 21.4676 15.7021 21.1365C16.5174 20.3446 17.2143 19.4327 17.7713 18.4312C17.9462 18.1015 18.0807 17.7704 18.226 17.7124C18.2772 17.6917 18.335 17.7083 18.3713 17.751C18.4077 17.7952 18.4655 17.8752 18.5476 17.9911H18.5462C18.5584 18.0076 18.5772 18.0187 18.5974 18.0187C18.8382 18.0269 19.079 17.9869 19.305 17.9C19.3118 17.8973 19.3158 17.8917 19.3185 17.8862C19.3212 17.8793 19.3212 17.8711 19.3185 17.8655C19.2916 17.8076 19.2553 17.7538 19.2136 17.7055C18.9835 17.4379 18.7615 17.1937 18.5476 16.9743C18.4951 16.9205 18.4319 16.8502 18.3565 16.7619C18.2718 16.6709 18.1938 16.5743 18.1238 16.4708C17.883 16.0845 17.8386 15.6017 18.0054 15.1768C18.3269 14.4222 19.0804 13.9586 19.8809 14.0249C20.2414 14.0262 20.5872 14.1738 20.8415 14.4374C20.9599 14.5725 21.0433 14.6664 21.0917 14.7202V14.7188C21.1025 14.7312 21.12 14.7174 21.1133 14.7036C20.6437 13.7697 21.5209 12.9088 22.4506 13.164C22.5394 13.1888 22.6524 13.2537 22.7412 13.284H22.7398C22.7465 13.2868 22.7533 13.284 22.7573 13.2785C22.7613 13.273 22.7613 13.2647 22.7573 13.2578C22.5272 12.9585 22.1586 12.8095 21.7913 12.866C21.237 12.8964 20.7634 13.284 20.6114 13.8303C20.6087 13.8386 20.6033 13.8441 20.5966 13.8469C20.5899 13.8497 20.5818 13.8497 20.5737 13.8469C20.4365 13.7724 20.2885 13.7241 20.1352 13.702C20.1177 13.7007 20.1056 13.6869 20.1069 13.6703C20.0975 12.7391 20.563 11.8713 21.3339 11.3789C22.0738 10.9291 22.9793 10.8767 23.7637 11.2381C24.1821 11.4285 24.5467 11.7224 24.8279 12.0935C24.84 12.1087 24.8319 12.1307 24.8144 12.1362C24.5251 12.2052 24.3045 12.4453 24.2534 12.7446C24.2184 12.975 24.2897 13.2095 24.4485 13.3765C24.4552 13.3834 24.4659 13.3779 24.4646 13.3682C24.2937 12.6371 24.8871 12.2756 25.5059 12.4729C25.6781 12.5198 25.8221 12.6439 25.8974 12.8109C25.9728 12.9778 25.9726 13.1696 25.8973 13.3365ZM20.3787 18.438C20.1755 18.089 20.0356 17.7041 19.9656 17.3041C19.8055 16.4073 20.1352 15.6775 20.715 15.0112V15.0098C20.7231 15.0002 20.7298 14.9878 20.7352 14.9754C20.7406 14.9629 20.7285 14.9519 20.7177 14.9588C20.1325 15.2582 19.5566 15.6638 19.4208 16.3756C19.3387 16.7647 19.3952 17.1702 19.5809 17.5206C19.7746 17.8834 20.0383 18.2035 20.3545 18.4615C20.3679 18.4712 20.3854 18.456 20.3787 18.4394L20.3787 18.438ZM23.7489 15.6348C23.4973 15.2126 23.0479 14.956 22.5663 14.9602C21.9434 14.974 21.3622 15.2844 20.9935 15.7989C20.6262 16.3149 20.5132 16.9771 20.6895 17.5896C20.7648 17.8227 20.863 18.0476 20.9828 18.26C20.9949 18.2794 21.0231 18.2683 21.0204 18.2462C20.8738 17.6779 20.9249 17.075 21.1644 16.5411C21.5478 15.7782 22.3605 15.3478 23.1905 15.4664C23.3775 15.5009 23.5578 15.5658 23.7247 15.6582C23.7327 15.6623 23.7408 15.661 23.7462 15.6554C23.7516 15.6499 23.7529 15.6403 23.7489 15.6348ZM28.6166 27.492C28.4363 27.4162 28.2439 27.3486 28.0205 27.2492V27.2506C27.0895 26.8381 26.1827 26.3732 25.3042 25.8559C24.9611 25.6558 24.6302 25.4392 24.31 25.2047C24.166 25.0999 24.0288 24.984 23.901 24.8598C23.8889 24.8474 23.8875 24.8281 23.8983 24.8157C23.9077 24.8033 23.9252 24.8005 23.9386 24.8088C24.493 25.1951 25.0742 25.5372 25.6782 25.8338C25.6903 25.8393 25.7038 25.8296 25.7011 25.8158C25.6069 25.1675 25.4482 24.5301 25.2262 23.9148C25.1441 23.7065 25.0365 23.5106 24.9046 23.3299C24.8939 23.3147 24.9073 23.294 24.9248 23.2982C25.0002 23.3465 25.0688 23.4016 25.132 23.4637C25.7011 23.9618 26.3052 24.4873 26.9456 25.0392H26.9442C27.5376 25.5165 28.0286 26.1138 28.3878 26.7953C28.3892 26.7995 28.3946 26.8009 28.3986 26.7995C28.4026 26.7981 28.404 26.7926 28.4026 26.7898C28.1672 26.147 27.8753 25.5289 27.5308 24.9412C27.3963 24.7205 27.2416 24.5122 27.0707 24.319C26.8958 24.1342 26.7061 23.9659 26.503 23.8127C26.1155 23.5037 25.7496 23.1657 25.4092 22.8029C24.3235 21.6344 23.3978 20.3183 22.6605 18.8919C22.5462 18.674 22.4103 18.4146 22.2556 18.1111V18.1097C22.2489 18.0987 22.2354 18.0932 22.2233 18.1001C21.7484 18.3622 21.2546 18.5857 20.746 18.7719C20.6788 18.7967 20.5563 18.8326 20.3788 18.8781V18.8768C20.3613 18.8823 20.3465 18.8975 20.3451 18.9168L20.3074 19.3003H20.3061C20.3021 19.3375 20.2563 19.3472 20.2375 19.3168L19.7437 18.4408H19.7451C19.7343 18.4215 19.7101 18.4173 19.6939 18.4298L19.367 18.6739C19.3361 18.6974 19.2944 18.6905 19.2715 18.6588L19.1531 18.4918C19.1222 18.4504 19.0724 18.4298 19.0213 18.438C18.8652 18.4698 18.7091 18.5111 18.5571 18.5622C18.5019 18.5815 18.4414 18.5815 18.3849 18.5622C18.3795 18.5594 18.3741 18.5553 18.3714 18.5498L18.2786 18.3842C18.2759 18.3787 18.2705 18.376 18.2638 18.376C18.2584 18.376 18.253 18.3801 18.2503 18.3856C17.8333 19.2161 17.2911 19.9762 16.6439 20.6343C16.1058 21.1351 15.616 21.6883 15.1842 22.2884C14.9178 22.7078 14.7227 23.0085 14.6016 23.1879C14.0029 24.0749 13.2737 24.864 12.4409 25.5235C12.4369 25.5262 12.4356 25.5331 12.4383 25.5373C12.441 25.5414 12.4463 25.5442 12.4517 25.5414C13.0733 25.2696 13.6612 24.922 14.2007 24.5067C15.5017 23.4445 16.6278 22.178 17.54 20.7529C17.8628 20.2742 18.0257 20.0314 18.0257 20.0231L18.0283 20.0204L18.0539 20.0231C18.0566 20.0245 18.0593 20.0259 18.0606 20.0286C18.062 20.0314 18.062 20.0342 18.0606 20.0369C17.5117 21.2882 16.8269 22.4718 16.0183 23.5645C15.7977 23.8624 15.3645 24.3508 15.1479 24.7095C14.9837 24.9895 14.8492 25.2875 14.7469 25.5979C14.7443 25.6062 14.7523 25.6145 14.7604 25.609L15.5919 25.0751V25.0765C15.6053 25.0682 15.6228 25.0792 15.6215 25.0944C15.5851 25.3827 15.6537 25.6738 15.8125 25.9125C15.8273 25.9359 15.8609 25.9276 15.865 25.9014C15.9 25.7028 15.9591 25.511 16.0439 25.3289C16.0587 25.2972 16.0789 25.2682 16.1058 25.2448C16.8014 24.5991 17.4027 23.8542 17.8911 23.0333C17.9032 23.0113 17.9369 23.0182 17.9409 23.0444C18.031 23.7452 18.1938 24.435 18.4266 25.1013C18.4885 25.2875 18.5759 25.4641 18.6863 25.6241C18.7199 25.6738 18.7858 25.6876 18.837 25.6573L18.9742 25.5759C18.993 25.5648 19.0172 25.5662 19.0347 25.58L20.3774 26.5733H20.3788C20.3936 26.5843 20.4164 26.5788 20.4245 26.5609L20.8631 25.6379H20.8617C20.8712 25.62 20.8927 25.6117 20.9102 25.62L23.2525 26.6795C23.2619 26.6836 23.2713 26.6795 23.2754 26.6698L23.8068 25.2599C23.8108 25.2448 23.8297 25.2406 23.8404 25.2517C24.6006 25.9235 25.4643 26.4615 26.3967 26.8437C27.1124 27.1361 27.8537 27.3624 28.6098 27.5169C28.6166 27.5196 28.6246 27.5169 28.6273 27.51C28.6287 27.5017 28.6246 27.4948 28.6166 27.4934L28.6166 27.492Z" fill="black"/>
</svg>
