<svg width="40" height="40" viewBox="0 0 40 40" fill="none" xmlns="http://www.w3.org/2000/svg">
<path d="M40 20C40 31.0457 31.0457 40 20 40C8.9543 40 0 31.0457 0 20C0 8.9543 8.9543 0 20 0C31.0457 0 40 8.9543 40 20Z" fill="#71895D"/>
<path d="M17.7239 19.9739C17.7458 19.9853 17.7688 19.9967 17.7929 20.0102C17.7793 20.0071 17.7563 19.9947 17.7228 19.9739H17.7239ZM19.9154 9L19.9144 9.00416C19.9008 9.07168 19.8935 9.12985 19.8914 9.1766L19.8893 9.85701C19.883 10.0419 19.8746 10.1925 19.8642 10.3099C19.8631 10.3307 19.861 10.3515 19.859 10.3722L19.561 10.0149C19.5097 9.9484 19.4533 9.86841 19.3926 9.777L19.0863 9.29708L18.9786 9.15061L18.9472 9.11944L18.9284 9.09035L18.9336 9.11217C18.9723 9.26176 19.0612 9.47575 19.1992 9.75415C19.31 9.97645 19.4177 10.153 19.5212 10.2829C19.586 10.3722 19.6666 10.4637 19.7648 10.5582L19.8328 10.6205C19.8077 10.8106 19.7763 10.9831 19.7377 11.1368C19.7021 11.2895 19.6174 11.5025 19.4836 11.7736C19.4459 11.8536 19.4208 11.9024 19.4093 11.9221C19.3968 11.9429 19.3853 11.9637 19.3738 11.9834H19.3717C19.3173 11.8276 19.2431 11.6115 19.15 11.3342L19.0538 11.09C19.0382 11.0464 19.0131 11.0101 18.9786 10.981L18.9597 10.9114L18.9524 10.9571C18.9388 11.5097 18.9817 11.9876 19.081 12.3906H19.08C19.057 12.3792 19.0361 12.3677 19.0152 12.3563C18.7747 12.2192 18.5645 12.0426 18.3836 11.8265C18.2864 11.733 18.049 11.3684 17.6716 10.7316H17.6695L17.6768 10.7742C17.7646 11.1368 17.9225 11.4962 18.1504 11.8525C18.3564 12.1673 18.5948 12.3968 18.8635 12.5423C18.9482 12.5869 19.0455 12.6254 19.1574 12.6565C19.1741 12.7033 19.1908 12.749 19.2086 12.7937C19.2828 12.991 19.4282 13.2497 19.6446 13.5717H19.6425C19.6676 13.6974 19.7324 13.8283 19.838 13.9665C19.8997 14.0433 19.953 14.1005 19.998 14.1379C20.0545 14.1805 20.1068 14.2199 20.1559 14.2573H20.1548C20.3054 14.4474 20.4863 14.6718 20.6985 14.9315C20.7383 14.9814 20.7759 15.0396 20.8115 15.105C20.8313 15.1434 20.8502 15.1829 20.8679 15.2245H20.8658C20.5835 15.3969 20.1151 15.5236 19.4606 15.6057L20.2207 15.6327H20.2259C20.3556 15.6327 20.5041 15.6171 20.6724 15.586C20.7738 15.5631 20.8658 15.5351 20.9495 15.5008H20.9516C20.9861 15.6753 20.9965 15.8685 20.9809 16.0815C20.9694 16.4721 20.9516 16.6944 20.9286 16.7484C20.5982 17.3789 20.2437 17.9793 19.8673 18.5486C19.8956 18.239 19.8307 17.9897 19.6718 17.8007C19.6227 17.7362 19.5725 17.676 19.5212 17.6209C19.1375 17.2335 18.8353 16.9229 18.6137 16.6881H18.6126C18.5886 16.6393 18.5687 16.5957 18.553 16.5593C18.5363 16.4658 18.5332 16.3276 18.5447 16.1427C18.5415 16.1324 18.5677 15.9371 18.6231 15.5569C18.6524 15.3065 18.6639 15.133 18.6565 15.0364C18.6482 14.7352 18.599 14.463 18.5091 14.2189C18.4432 14.0392 18.3784 13.9021 18.3136 13.8096L17.864 13.2798C17.819 13.231 17.7761 13.1905 17.7354 13.1583L17.6559 13.0409L17.6841 13.1251C17.7092 13.2154 17.8138 13.4544 17.9968 13.8408H17.9957C17.8138 13.7785 17.6706 13.7265 17.5649 13.6839C17.4238 13.6237 17.2941 13.5489 17.1781 13.4606C17.1206 13.4128 17.0662 13.3661 17.015 13.3204L17.1268 12.9235C17.1613 12.7937 17.1875 12.6836 17.2053 12.5953C17.2513 12.3605 17.2722 12.1766 17.268 12.0406C17.2638 11.9398 17.246 11.8079 17.2157 11.6469C17.1864 11.5118 17.1572 11.4048 17.1268 11.3259C17.0348 11.0807 16.9418 10.9176 16.8466 10.8377H16.8456L16.8497 10.8543L16.9669 11.2272C16.994 11.3269 17.0118 11.4059 17.0212 11.463C17.0338 11.5284 17.0432 11.5918 17.0505 11.6552C17.0254 11.6292 16.9982 11.6032 16.97 11.5752C16.8048 11.3986 16.7138 11.2989 16.6961 11.2739C16.5852 11.1358 16.4817 10.9966 16.3866 10.8543C16.3646 10.8262 16.259 10.6538 16.0718 10.338L16.0258 10.2736L16.0279 10.2913C16.1053 10.6766 16.3165 11.0953 16.6605 11.5472C16.717 11.6168 16.7849 11.6853 16.8644 11.7518L17.0693 11.9242C17.0693 11.9513 17.0704 11.9783 17.0693 12.0053C17.0683 12.0977 17.0516 12.2182 17.0202 12.3657L16.9951 12.479C16.9575 12.6161 16.9292 12.7231 16.9104 12.7999L16.8539 13.043C16.8456 13.0794 16.8372 13.1126 16.8299 13.1448C16.7682 13.0825 16.7128 13.0222 16.6626 12.9641C16.602 12.8924 16.5434 12.8197 16.488 12.7439L16.097 12.1985L16.1001 12.2255C16.2151 12.7251 16.5204 13.2134 17.0139 13.6902C17.1541 13.8138 17.3182 13.9198 17.5033 14.007C17.5493 14.0413 17.7605 14.1036 18.1359 14.1971C18.1651 14.301 18.1881 14.409 18.2049 14.5212C18.2258 14.677 18.2321 14.8329 18.2226 14.9897C18.2174 15.0583 18.2111 15.1216 18.2028 15.1798C18.1536 15.4468 18.1285 15.5984 18.1265 15.6358C18.1129 15.8 18.1045 15.9392 18.1024 16.0524V16.1033L17.3903 15.2234C17.2962 15.104 17.2293 15.0105 17.1927 14.9419H17.1917C17.2461 15.0873 17.3036 15.2307 17.3632 15.372L16.9146 15.1819C16.7787 15.1123 16.6793 15.0489 16.6135 14.9928C16.5528 14.9471 16.4462 14.8422 16.2956 14.6801C16.2642 14.651 16.1555 14.515 15.9683 14.2708C15.8909 14.1836 15.824 14.1181 15.7697 14.0755H15.7686L16.0813 14.6168C16.1764 14.757 16.2653 14.8744 16.3468 14.97C16.4462 15.0884 16.5622 15.1985 16.695 15.3003C16.7389 15.3335 16.7839 15.3616 16.8309 15.3875L17.2199 15.5683C17.2774 15.6036 17.3245 15.6389 17.359 15.6763C17.4457 15.7719 17.5702 15.934 17.7322 16.1614H17.7312C17.8148 16.3245 17.9016 16.4856 17.9915 16.6434C18.0417 16.7317 18.1484 16.8855 18.3115 17.1047C18.2111 17.0621 18.1066 17.032 17.9988 17.0143L17.0317 16.9312C16.9731 16.9239 16.9187 16.9167 16.8686 16.9094H16.8675C16.8006 16.898 16.7399 16.8865 16.6866 16.8751C16.6479 16.8658 16.6124 16.8564 16.581 16.8471C16.5047 16.8429 16.3332 16.7473 16.0666 16.5604C15.9673 16.4949 15.8073 16.3474 15.5856 16.1189H15.5846C15.5919 16.1646 15.6295 16.2414 15.6996 16.3515C15.916 16.6466 16.1743 16.8689 16.4743 17.0164L16.4775 17.0174H16.4754C16.3886 17.0756 16.329 17.114 16.2955 17.1327C15.9808 17.3052 15.7832 17.4007 15.7016 17.4173C15.5573 17.4589 15.4214 17.4786 15.296 17.4786C15.2792 17.4786 15.2635 17.4786 15.2479 17.4776C15.183 17.4765 15.1078 17.4682 15.0231 17.4527L14.8024 17.4101C14.7773 17.4018 14.7543 17.3955 14.7355 17.3914C14.7272 17.3893 14.7177 17.3893 14.7094 17.3893H14.6989L14.6759 17.3799H14.6749C14.7951 17.4755 14.9446 17.5461 15.1224 17.5898C15.2259 17.6147 15.3315 17.6261 15.4392 17.6261C15.5009 17.6261 15.5647 17.622 15.6285 17.6147C15.825 17.5887 16.0237 17.5181 16.2255 17.4028C16.3353 17.3374 16.4336 17.2698 16.5214 17.2002C16.5549 17.1753 16.603 17.1358 16.6647 17.0828H16.6636H16.6668C16.7483 17.1067 16.8382 17.1275 16.9365 17.1452C17.0672 17.1743 17.3997 17.2168 17.9319 17.2709C18.0156 17.2854 18.0929 17.3051 18.163 17.3311C18.2676 17.3685 18.3732 17.4267 18.4809 17.5077C18.5373 17.5461 18.6764 17.676 18.8981 17.8962C18.919 17.9149 18.9378 17.9284 18.9556 17.9357H18.9545C18.9901 17.9804 19.0267 18.0271 19.0643 18.0749C19.1051 18.1299 19.1448 18.1964 19.1845 18.2764L19.0904 18.9371C19.0539 19.1542 19.0246 19.309 19.0026 19.3994C19.0058 19.4274 18.9577 19.578 18.8583 19.8512C18.8092 19.8294 18.7444 19.8055 18.6618 19.7785C17.9403 19.5967 17.5681 19.4856 17.5461 19.4471C17.0578 18.9184 16.7629 18.6514 16.6636 18.6483C15.5082 18.3782 14.7324 18.1767 14.3393 18.0427H14.3372C14.1291 17.8453 13.9869 17.6272 13.9095 17.3893C13.8489 17.2252 13.8447 17.0268 13.8949 16.793C13.9127 16.7172 13.9325 16.6486 13.9545 16.5884C14.1667 16.0836 14.2818 15.7989 14.2995 15.7335C14.357 15.5548 14.3915 15.3876 14.403 15.2338C14.4198 15.0323 14.403 14.8152 14.3529 14.5835C14.3173 14.3883 14.2514 14.2013 14.1552 14.0236L14.1542 14.0496L14.1584 14.1805C14.1856 14.4984 14.1981 14.6957 14.1981 14.7736C14.2002 14.9191 14.1939 15.0448 14.1762 15.1487C14.1584 15.2806 14.1145 15.4364 14.0444 15.614L13.852 16.0129C13.8332 15.9942 13.8144 15.9755 13.7935 15.9568C13.6115 15.7688 13.5185 15.6691 13.5143 15.6587C13.4463 15.5714 13.3909 15.4842 13.347 15.3959C13.1055 14.8017 12.9424 14.4288 12.8556 14.2792C12.6946 14.0153 12.5628 13.8678 12.4624 13.8377H12.4603L12.4645 13.8439C12.5617 13.9935 12.6475 14.1639 12.7207 14.355C12.7426 14.4028 12.8461 14.7321 13.0333 15.3429C13.0657 15.4457 13.0908 15.5174 13.1086 15.5569C13.1661 15.6919 13.2424 15.8197 13.3386 15.9402C13.3867 16.0067 13.484 16.1002 13.6303 16.2217C13.6607 16.2446 13.6899 16.2685 13.7182 16.2913L13.8269 16.0649L13.6324 16.47C13.5927 16.5604 13.5624 16.6476 13.5404 16.7318C13.4787 16.9748 13.4913 17.2169 13.5781 17.4589C13.6073 17.542 13.6439 17.622 13.6858 17.6978C13.5634 17.6168 13.4651 17.5389 13.3898 17.4662L12.499 16.496L12.5063 16.5375C12.6161 16.9343 12.7803 17.2886 12.9988 17.5971C12.6119 17.5701 12.3589 17.542 12.2397 17.515C11.9982 17.4735 11.7775 17.4018 11.5778 17.3021C11.4346 17.2262 11.3081 17.1535 11.1983 17.0829C11.3039 16.7463 11.3697 16.4669 11.3959 16.2456C11.4252 16.0129 11.4314 15.8249 11.4137 15.6805C11.3823 15.4084 11.3237 15.1757 11.239 14.9814C11.1355 14.7446 11.0257 14.5846 10.9097 14.5015H10.9086L10.9149 14.5181C11.1042 14.8942 11.2045 15.2827 11.216 15.6826C11.2213 15.8208 11.2045 15.9963 11.1658 16.2093C11.1512 16.2872 11.1324 16.3682 11.1115 16.4534L10.9818 16.9313H10.9808C10.9661 16.9198 10.9525 16.9084 10.939 16.897C10.8752 16.8481 10.7926 16.7754 10.6901 16.6788L10.2855 16.2727L10.2938 16.2986C10.5197 16.7952 10.9567 17.22 11.605 17.5732C11.7974 17.6688 12.0055 17.7353 12.2324 17.7758C12.3913 17.8039 12.706 17.8184 13.1744 17.8215H13.1734C13.3271 18.0012 13.5028 18.1633 13.6993 18.3087C13.9021 18.4666 14.2827 18.6505 14.84 18.8603H14.839C14.771 18.8956 14.6863 18.9455 14.5839 19.0109C14.3988 19.146 14.2472 19.254 14.127 19.3361H14.1259C14.0234 19.3558 13.9293 19.3662 13.8426 19.3662C13.7965 19.3693 13.7484 19.3714 13.6993 19.3714C13.4703 19.3714 13.21 19.3381 12.9162 19.2737C12.7844 19.2426 12.6663 19.201 12.5607 19.1491C12.5575 19.1491 12.5063 19.121 12.4049 19.0649H12.4038C12.3327 19.0244 12.2344 18.9694 12.111 18.8998C11.904 18.7834 11.6238 18.6256 11.2725 18.4261L10.9703 18.2651C10.7852 18.1861 10.6295 18.1446 10.5019 18.1404H10.4946C10.4799 18.1477 10.4684 18.1508 10.4611 18.1508H10.4569C10.6577 18.2485 10.7988 18.3243 10.8804 18.3794L11.7116 18.9549H11.7106V18.9559H11.7095C11.6593 18.9642 11.5412 18.9902 11.353 19.0338C11.3384 19.0369 11.3164 19.0411 11.2882 19.0463C11.192 19.0619 11.1146 19.0712 11.055 19.0733C11.008 19.0754 10.9609 19.0764 10.9128 19.0764C10.7769 19.0764 10.6378 19.066 10.4956 19.0442C10.4412 19.0359 10.3837 19.0234 10.3241 19.0068L10.0429 18.9112C10.0356 18.9081 10.0272 18.9071 10.0209 18.9071C10.0167 18.9071 10.0136 18.9071 10.0105 18.9081L10.001 18.905H10C10.1276 19.0234 10.2844 19.1096 10.4726 19.1647C10.6849 19.2239 10.9013 19.254 11.1209 19.254C11.147 19.254 11.1732 19.253 11.1993 19.253C11.2882 19.2499 11.4021 19.2364 11.5391 19.2114C11.5924 19.2042 11.7325 19.1761 11.9605 19.1283L11.836 19.0411L11.9584 19.1263L11.9615 19.1283L12.2856 19.3527C12.3902 19.4286 12.4833 19.4826 12.5648 19.5137C12.8607 19.6218 13.142 19.6945 13.4055 19.7308H13.4044C13.3281 19.762 13.2486 19.7911 13.166 19.8191C12.9412 19.8908 12.729 19.9313 12.5303 19.9417C12.501 19.9428 12.4728 19.9438 12.4446 19.9438C12.4007 19.9438 12.3557 19.9417 12.3128 19.9386C12.2375 19.9324 12.133 19.9189 11.9991 19.896C11.9772 19.8877 11.9563 19.8825 11.9375 19.8804C11.9343 19.8794 11.9301 19.8783 11.926 19.8783C11.9124 19.8783 11.8956 19.8835 11.8737 19.8939C11.8684 19.8939 11.8601 19.8908 11.8496 19.8846H11.8486C12.0744 20.1069 12.4142 20.2211 12.868 20.2284C13.1702 20.2222 13.4567 20.1786 13.7275 20.0955H13.7285C13.7139 20.111 13.7003 20.1256 13.6878 20.1391L12.9339 20.966L12.8262 21.0366C12.4425 21.2423 12.2145 21.3732 12.1424 21.4282C12.6348 21.3254 12.959 21.208 13.1148 21.0761L14.0485 20.2253C14.198 20.0996 14.4793 19.8784 14.8933 19.5605C14.9017 19.547 14.9101 19.5335 14.9174 19.519H14.9163L15.1725 19.3413C15.2175 19.3112 15.2791 19.2769 15.3576 19.2395C15.4119 19.2136 15.5269 19.1876 15.7026 19.1606H15.7047C15.894 19.2219 16.0958 19.2852 16.3101 19.3507C16.6029 19.7194 16.8308 19.949 16.996 20.0394C17.3933 20.2949 17.8555 20.5099 18.3846 20.6824L18.4473 20.8143C18.5194 20.9795 18.5539 21.1363 18.5498 21.2859C18.327 22.119 18.2455 22.7714 18.3051 23.2441C18.326 23.4103 18.3595 23.59 18.4044 23.7832H18.4023C18.4086 23.9774 18.4201 24.207 18.4379 24.4729C18.4766 25.0308 18.4985 25.3206 18.5037 25.3403L18.67 26.2451C18.7317 26.7323 18.761 27.0138 18.7589 27.0886C18.7495 27.4293 18.7421 27.6309 18.7359 27.6921C18.6229 28.5678 18.5644 29.0488 18.5602 29.1381C18.555 29.269 18.5508 29.4072 18.5498 29.5516H18.5487L18.4442 29.8694L18.4431 29.8674C18.4358 29.8674 18.3804 30.178 18.28 30.8002L18.0949 31.9958L18.1085 32C18.1608 32 18.2674 31.8774 18.4295 31.6312C18.5194 31.5159 18.808 31.0173 19.2932 30.1333H19.2984C19.3151 30.1333 19.3339 30.1655 19.3549 30.2309C19.3967 30.6683 19.4458 30.9602 19.5033 31.1046C19.6476 31.5367 19.7543 31.7829 19.8243 31.8442C19.8296 31.8463 19.8337 31.8473 19.839 31.8473C19.8567 31.8473 19.8745 31.8348 19.8923 31.8089C19.9791 31.5336 20.047 31.3809 20.0951 31.3508C20.1234 31.3497 20.1516 31.3497 20.1798 31.3497C20.4778 31.3497 20.7434 31.3902 20.9755 31.4702L21.2871 31.1928H21.2882C21.329 31.2084 21.3676 31.223 21.4053 31.2354C21.4659 31.2552 21.5412 31.2718 21.6332 31.2863C21.7618 31.2905 21.9835 31.3113 22.2982 31.3487L23.0312 31.1752C22.3212 30.8833 21.881 30.6818 21.7127 30.5727C21.5653 30.4761 21.422 30.3691 21.2829 30.2507H21.2819C21.1669 30.1312 21.0843 30.0315 21.0331 29.9505C20.8699 29.7396 20.7246 29.4965 20.5991 29.2212C20.5615 29.1319 20.4663 28.6821 20.3126 27.8698C20.298 27.8127 20.2415 27.2673 20.1433 26.2327C20.1328 26.1568 20.0983 25.9948 20.0397 25.7465H20.0387C20.0377 25.7008 20.0366 25.6572 20.0345 25.6156C20.0418 25.5616 20.0554 25.5149 20.0753 25.4754C20.0648 25.4473 20.1631 25.3611 20.3681 25.2136C21.5339 24.7524 22.2366 24.393 22.477 24.1333C22.6109 23.9982 22.7353 23.8601 22.8503 23.7198H22.8492C23.0354 23.643 23.1901 23.5921 23.3135 23.565L24.5964 23.3563C24.7428 23.3272 24.9227 23.2773 25.137 23.2056H25.1381C25.2395 23.3002 25.3472 23.3885 25.4622 23.4716C25.5845 23.5557 25.7027 23.6191 25.8187 23.6617C25.9369 23.7084 26.0812 23.7385 26.2547 23.75C26.284 23.752 26.3133 23.752 26.3426 23.752C26.6322 23.752 26.8988 23.6835 27.1435 23.5443H27.1414C26.8319 23.5796 26.6562 23.5972 26.6155 23.5972H26.6102C26.5757 23.5983 26.5412 23.5993 26.5088 23.5993C26.4273 23.5993 26.3562 23.5941 26.2934 23.5858C26.0759 23.563 25.8647 23.4799 25.6608 23.3386C25.5542 23.2648 25.4538 23.1869 25.3576 23.1069H25.3555C25.6891 22.9438 25.9578 22.7496 26.1585 22.5263C26.2945 22.3787 26.375 22.2458 26.4011 22.1263H26.4001C26.0717 22.4681 25.6692 22.7267 25.1924 22.9044C25.0764 22.9439 24.8965 22.9864 24.6519 23.0311L23.2361 23.1921C23.2926 23.1038 23.3459 23.0155 23.395 22.9252C23.5372 22.6686 23.6345 22.4691 23.6889 22.3247C23.7066 22.2873 23.7422 22.1762 23.7934 21.9913C23.8091 21.9435 23.8112 21.8957 23.8018 21.849L23.8279 21.7783L23.7955 21.8137C23.2257 22.547 22.9109 22.9366 22.8534 22.9833C22.6109 23.2513 22.3683 23.484 22.1247 23.6814C22.0023 23.7749 21.811 23.8736 21.5506 23.9785C21.5046 24.0024 21.3509 24.0585 21.0885 24.1478C21.1554 23.4674 21.284 22.8431 21.4743 22.2759C21.8058 22.1803 22.0797 22.0484 22.293 21.8812C22.5419 21.6786 22.7802 21.448 23.0092 21.1914C23.1985 20.9649 23.2884 20.8112 23.28 20.7312H23.2779L23.2727 20.7385C23.1734 20.8673 23.0228 21.0189 22.821 21.1945C22.5209 21.449 22.2899 21.6287 22.1257 21.7346C21.9448 21.8406 21.7597 21.932 21.5705 22.0089C21.7211 21.6141 21.9051 21.2485 22.1205 20.9129H22.1194C21.7911 21.2225 21.5119 21.6224 21.2798 22.1138H21.2788C21.2443 22.1906 21.2098 22.2686 21.1763 22.3485C21.1104 22.5075 21.0487 22.6737 20.9923 22.8492C20.872 23.2533 20.7727 23.7301 20.6964 24.2807H20.6943C20.5573 24.3264 20.4036 24.3763 20.2342 24.4324C20.1077 24.4749 19.9948 24.5217 19.8954 24.5715C19.8003 24.6214 19.7114 24.6869 19.6309 24.7679C19.5494 24.5051 19.4856 24.2755 19.4417 24.0812C19.3559 23.7062 19.3036 23.3832 19.2848 23.1121C19.2482 22.9718 19.3444 22.415 19.5734 21.4417C19.5849 21.343 19.5859 21.2402 19.5755 21.1332H19.5744C19.6069 20.9971 19.6403 20.8787 19.6748 20.7758C19.7114 20.6802 19.7595 20.5878 19.8191 20.4995C20.1547 20.058 20.4088 19.7079 20.5834 19.4513H20.5814C20.6776 19.4119 20.7779 19.3734 20.8846 19.336C20.8898 19.3298 21.0038 19.3257 21.2265 19.3257C21.3499 19.3257 21.5057 19.3267 21.6949 19.3288L22.8294 19.4565C22.9036 19.4628 23.0071 19.4659 23.1431 19.4659C23.2058 19.4659 23.2769 19.4649 23.3543 19.4638C23.6449 19.4254 23.9607 19.3423 24.3005 19.2135C24.4741 19.1542 24.6498 19.0753 24.8265 18.9766H24.8285L25.045 19.041C25.1673 19.0711 25.2823 19.0919 25.39 19.1034C25.4935 19.1117 25.5908 19.1158 25.6828 19.1158C25.8344 19.1158 25.9703 19.1044 26.0906 19.0805C26.6364 18.9662 27.0463 18.7564 27.3181 18.4531H27.316L27.2972 18.4593C26.9386 18.6162 26.696 18.7086 26.5694 18.7387C26.3739 18.7948 26.1732 18.8281 25.9693 18.8395C25.9379 18.8416 25.9044 18.8426 25.871 18.8426C25.7256 18.8426 25.5636 18.826 25.3858 18.7938C25.3252 18.7813 25.2614 18.7647 25.1945 18.746H25.1934C25.3879 18.6099 25.5845 18.4499 25.7842 18.2671C25.8009 18.2495 25.8176 18.2328 25.8344 18.2152H25.8323C25.9839 18.1383 26.2254 17.9918 26.5579 17.7768C26.6112 17.7477 26.6698 17.7238 26.7336 17.7041C26.7827 17.6875 26.8245 17.675 26.8601 17.6688C27.3264 17.6501 27.6412 17.6252 27.8043 17.5919C28.0625 17.54 28.2999 17.4641 28.5163 17.3644C29.1134 17.0434 29.4918 16.6632 29.6539 16.2249H29.6518L29.6372 16.2394C29.312 16.631 28.9408 16.924 28.5236 17.1193C28.4117 17.1743 28.2716 17.2231 28.1043 17.2657C28.3135 17.0538 28.4546 16.8585 28.5268 16.6799C28.5801 16.5718 28.6303 16.443 28.6773 16.2955C28.6815 16.2851 28.6857 16.2716 28.6909 16.256C28.7787 16.2228 28.8655 16.1854 28.9534 16.1428C29.174 16.0306 29.4071 15.8665 29.6529 15.6504C29.8641 15.451 29.9801 15.2941 30 15.1767H29.999L29.9885 15.1861C29.8285 15.3492 29.6665 15.4853 29.5033 15.5954C29.311 15.7252 29.0632 15.8717 28.7589 16.0327C28.7903 15.9236 28.829 15.7865 28.875 15.6203C28.8886 15.5735 28.9293 15.4582 28.9983 15.2754C29.0151 15.2276 29.0213 15.2006 29.0172 15.1923H29.0151L29.0109 15.1975C28.9419 15.2723 28.8687 15.3866 28.7913 15.5372L28.5425 16.1366L28.5404 16.1376L28.4839 16.2778L28.3877 16.4856C28.325 16.6144 28.2371 16.7484 28.1263 16.8876C28.0176 17.033 27.8848 17.1847 27.7269 17.3436C27.5544 17.3654 27.2522 17.3872 26.8225 17.408C26.7723 17.4142 26.7095 17.4309 26.6332 17.4589C26.5527 17.4901 26.4858 17.5212 26.4325 17.5545C26.3896 17.5846 26.3478 17.6137 26.308 17.6417C26.4126 17.488 26.4921 17.3415 26.5464 17.2034H26.5454C26.5924 17.1286 26.6343 17.0538 26.6688 16.978C26.6824 16.9447 26.6959 16.899 26.7085 16.8398L26.8183 16.309C26.8862 16.1438 26.9678 16.0119 27.0629 15.9122C27.2219 15.7501 27.3798 15.6171 27.5376 15.5143C27.6694 15.4187 27.9161 15.3055 28.2769 15.1757L28.2026 15.1705H28.1786C27.753 15.1964 27.3442 15.3824 26.9532 15.7304C26.9312 15.6192 26.9134 15.4894 26.8977 15.3388C26.8883 15.2016 26.8967 15.0458 26.9228 14.8734C26.9291 14.8287 26.9448 14.7529 26.9709 14.648C26.9772 14.6147 27.0117 14.4869 27.0713 14.2626L27.0901 14.168C27.0943 14.1545 27.0943 14.1421 27.0912 14.1296C27.0922 14.1223 27.0943 14.1161 27.0964 14.1119H27.0954L27.087 14.1223C26.9688 14.301 26.8664 14.5337 26.7775 14.8225C26.7127 15.0656 26.6886 15.2847 26.7054 15.48C26.7095 15.5787 26.7399 15.7138 26.7974 15.8852C26.7263 15.9724 26.6594 16.0794 26.5977 16.2072C26.5799 16.2435 26.5611 16.309 26.5381 16.4035L26.4398 16.8949C26.3969 17.005 26.3352 17.1203 26.2537 17.2408C26.2139 17.299 26.1711 17.3592 26.1251 17.4205H26.123C25.964 17.5732 25.8198 17.6999 25.6922 17.8007H25.6911L25.7445 16.8627C25.758 16.7411 25.7842 16.5988 25.8208 16.4368C25.871 16.2311 25.9483 15.9839 26.054 15.6961L26.1637 15.4302L26.3384 15.0697C26.3467 15.0541 26.3519 15.0375 26.3519 15.0198L26.3655 15.0001L26.3509 15.0095C26.078 15.2276 25.8187 15.6701 25.574 16.337C25.5155 16.5084 25.4737 16.6663 25.4475 16.8097C25.4162 16.9696 25.39 17.3311 25.3691 17.8921C25.3576 17.9565 25.3367 18.0178 25.3053 18.0749H25.3043C25.0283 18.2515 24.7585 18.3876 24.4929 18.4832C24.198 18.6026 23.8049 18.6951 23.3135 18.7616C23.3093 18.7294 23.303 18.7003 23.2968 18.6753C23.0814 18.1902 22.9622 17.888 22.9392 17.7664C22.9319 17.6636 22.9726 17.5244 23.0594 17.3488H23.0573C22.8911 17.4755 22.8064 17.6365 22.8053 17.835C22.8336 18.0479 22.9151 18.3481 23.05 18.7335C23.0532 18.7481 23.0542 18.7668 23.0552 18.7927H23.0532C22.9779 18.8 22.9078 18.8041 22.843 18.8052C22.5199 18.8031 22.2637 18.801 22.0766 18.801C21.8131 18.801 21.6824 18.8041 21.6866 18.8093C21.3541 18.8457 21.0937 18.8831 20.9065 18.9205C20.9661 18.801 21.0467 18.6244 21.1481 18.3886H21.147C21.261 18.21 21.4314 17.8692 21.6604 17.3675H21.6583C21.7692 17.2356 21.9825 17.005 22.2982 16.6746H22.3003L22.3547 16.6881C22.7384 16.8824 23.0354 17.0039 23.2455 17.0538C23.395 17.0901 23.5351 17.1078 23.6669 17.1078C23.8697 17.1078 24.0506 17.0652 24.2106 16.98H24.2095C24.1479 17.0029 24.0715 17.0143 23.9816 17.0143C23.8321 17.0143 23.6428 16.9821 23.4149 16.9177C23.2978 16.8782 23.1723 16.8253 23.0406 16.7577C22.935 16.7068 22.7635 16.6071 22.5241 16.4596C22.5209 16.4575 22.5167 16.4554 22.5136 16.4534H22.5115C22.6202 16.3412 22.7374 16.2196 22.8649 16.0898C23.0102 15.9132 23.1232 15.7418 23.2058 15.5756C23.2194 15.5507 23.233 15.5247 23.2455 15.4987H23.2445C23.279 15.4624 23.3197 15.4281 23.3657 15.3948C23.4013 15.3689 23.4588 15.3398 23.5383 15.3076C24.06 15.1403 24.3402 15.0448 24.3789 15.0219C24.5723 14.9232 24.7365 14.81 24.8714 14.6833C25.1851 14.381 25.3293 14.0569 25.3022 13.7099H25.3011L25.2938 13.7245C25.183 13.9821 25.093 14.1525 25.024 14.2335C24.9247 14.3644 24.7951 14.4818 24.632 14.5867C24.5452 14.6448 24.4249 14.7072 24.2733 14.7726L23.5038 14.9731C23.4703 14.9824 23.4421 14.9897 23.418 14.997C23.4546 14.8443 23.4818 14.677 23.5006 14.4963C23.5038 14.4547 23.5069 14.4142 23.51 14.3758H23.509C23.5195 14.3633 23.532 14.3509 23.5435 14.3374C23.5592 14.3155 23.7631 14.114 24.1541 13.7307C24.2127 13.6705 24.2524 13.6248 24.2733 13.5915C24.4092 13.3775 24.4814 13.1729 24.4897 12.9776C24.4981 12.8758 24.5013 12.7532 24.4971 12.6088C24.495 12.532 24.4929 12.4634 24.4897 12.4011L24.4636 11.8952C24.4584 11.8536 24.4657 11.6864 24.4835 11.3955C24.4856 11.3883 24.4814 11.38 24.472 11.3706L24.4688 11.3737C24.4176 11.4651 24.3695 11.622 24.3266 11.8453C24.3141 11.9222 24.3068 11.9752 24.3047 12.0032C24.2733 12.5112 24.2534 12.775 24.2461 12.7937C24.2284 12.9506 24.2033 13.068 24.1719 13.1449C24.1343 13.2394 24.0872 13.3225 24.0307 13.3952C23.8268 13.6113 23.6575 13.7972 23.5226 13.953C23.5215 13.9333 23.5205 13.9146 23.5195 13.8959L23.487 13.6113C23.4829 13.5604 23.4672 13.5157 23.44 13.4752L23.4369 13.3983L23.4191 13.444L23.1179 14.5182H23.1169C23.0981 14.5597 23.0814 14.6033 23.0657 14.648C23.0583 14.6709 23.05 14.7062 23.0395 14.756C23.0374 14.7675 23.0353 14.7789 23.0333 14.7893H23.0312C22.9611 14.9752 22.8942 15.1176 22.8294 15.2142C22.7248 15.3773 22.6108 15.5216 22.4875 15.6453C22.2512 15.8416 22.041 16.0182 21.8559 16.1761C21.8496 16.0348 21.8392 15.878 21.8246 15.7035C21.7911 15.4209 21.7221 15.1726 21.6175 14.9566C21.5443 14.8049 21.445 14.6501 21.3206 14.4943L20.2833 13.4181H20.2823C20.7685 13.1989 21.0466 13.0649 21.1156 13.0161C21.3143 12.8987 21.4983 12.745 21.6656 12.5559C21.9281 12.2266 22.1152 11.9233 22.2261 11.6469C22.3589 11.3384 22.4143 11.0777 22.3934 10.8658H22.3923L22.3777 10.8897C22.2167 11.2231 22.0389 11.5202 21.8444 11.782C21.8277 11.6916 21.7901 11.5587 21.7336 11.38C21.7085 11.3 21.6426 11.1193 21.5339 10.8367C21.5172 10.791 21.5046 10.7526 21.4952 10.7214C21.4628 10.6186 21.4398 10.5168 21.4252 10.4181C21.4126 10.335 21.4042 10.2477 21.4021 10.1584C21.4001 10.0659 21.4001 9.88518 21.4042 9.61612C21.4042 9.58495 21.4042 9.55587 21.4032 9.5299L21.3938 9.42082C21.3927 9.4042 21.3896 9.3907 21.3833 9.37719C21.3823 9.36888 21.3823 9.36161 21.3833 9.35538H21.3823L21.376 9.36992C21.3237 9.53821 21.2819 9.77818 21.2505 10.0888C21.2317 10.2737 21.2359 10.4451 21.262 10.605C21.283 10.7307 21.306 10.8305 21.33 10.9042C21.4021 11.1473 21.4942 11.4278 21.6071 11.7446C21.6343 11.8339 21.6552 11.9139 21.673 11.9835C21.673 11.9877 21.674 11.9908 21.6751 11.995C21.5684 12.1206 21.4576 12.2359 21.3415 12.3419C21.215 12.4541 21.0738 12.5476 20.9191 12.6234C20.8438 12.6639 20.5427 12.7782 20.0157 12.9652C19.9812 12.9787 19.9519 12.9922 19.9279 13.0036C19.8641 12.9216 19.8066 12.8437 19.7554 12.7678C19.6592 12.6266 19.5797 12.4873 19.517 12.3492H19.5159L19.6989 12.0812C19.7616 11.9804 19.8118 11.888 19.8516 11.8028C19.9812 11.513 20.0575 11.2263 20.0795 10.9437C20.1129 10.6238 20.114 10.2789 20.0847 9.90804C20.068 9.73352 20.046 9.57251 20.0168 9.425L19.9394 9.03961C19.9362 9.01676 19.929 9.00312 19.9154 9Z" fill="black"/>
</svg>
