<svg width="40" height="40" viewBox="0 0 40 40" fill="none" xmlns="http://www.w3.org/2000/svg">
<path d="M40 20C40 31.0457 31.0457 40 20 40C8.9543 40 0 31.0457 0 20C0 8.9543 8.9543 0 20 0C31.0457 0 40 8.9543 40 20Z" fill="#925648"/>
<path d="M8.35077 16.9229C7.6053 16.9229 7 17.5647 7 18.3547C7 19.1447 7.6053 19.7864 8.35077 19.7864H9.2638C9.25872 19.8361 9.23333 19.881 9.23333 19.9327C9.23333 20.7227 9.83863 21.3644 10.5841 21.3644H16.7682C17.5126 21.3644 18.1189 20.7227 18.1189 19.9327C18.1189 19.1427 17.5136 18.501 16.7682 18.501H15.8551C15.8602 18.4512 15.8856 18.4064 15.8856 18.3556C15.8856 17.5656 15.2803 16.9239 14.5348 16.9239L8.35077 16.9229ZM7.69687 18.3547C7.69687 17.9343 7.99038 17.591 8.35092 17.591H14.535C14.8955 17.591 15.189 17.9333 15.189 18.3547C15.189 18.4776 15.1646 18.5946 15.1159 18.7038C15.0692 18.8072 15.0814 18.9252 15.1454 19.0198C15.2093 19.1134 15.319 19.17 15.4358 19.17H16.7673C17.1278 19.17 17.4213 19.5123 17.4213 19.9336C17.4213 20.355 17.1278 20.6973 16.7673 20.6973L10.5843 20.6963C10.2237 20.6963 9.93024 20.354 9.93024 19.9327C9.93024 19.8098 9.95461 19.6928 10.0034 19.5845C10.0501 19.4811 10.0389 19.3621 9.97391 19.2685C9.90993 19.1749 9.80024 19.1183 9.68344 19.1183H8.35095C7.99041 19.1173 7.69687 18.775 7.69687 18.3547ZM15.7841 18.8345C15.7841 18.8794 15.775 18.9252 15.7557 18.9672C15.775 18.9242 15.7699 18.8765 15.7841 18.8345ZM9.33382 19.4519C9.33382 19.407 9.34296 19.3622 9.36226 19.3202C9.34398 19.3622 9.34905 19.409 9.33382 19.4519Z" fill="black"/>
<path d="M11.0454 17.1511C11.0098 17.2526 11.0271 17.3647 11.0931 17.4525C11.1581 17.5393 11.2637 17.592 11.3754 17.592L14.535 17.591C14.8955 17.591 15.189 17.9333 15.189 18.3547C15.189 18.4776 15.1646 18.5946 15.1159 18.7038C15.0692 18.8072 15.0814 18.9252 15.1454 19.0198C15.2093 19.1134 15.319 19.17 15.4358 19.17H16.7673C17.1278 19.17 17.4213 19.5123 17.4213 19.9336C17.4213 20.355 17.1278 20.6973 16.7673 20.6973L10.9753 20.6963C10.8758 20.6963 10.7813 20.7373 10.7153 20.8085C10.6493 20.8797 10.6178 20.9752 10.63 21.0698C11.1896 25.5902 15.1901 29 19.9361 29C22.2568 29 24.485 28.1759 26.2117 26.6788C26.3183 26.5862 26.3549 26.4399 26.3031 26.3101C26.2513 26.1814 26.1223 26.0956 25.9781 26.0956L20.9965 26.0965C20.6014 26.0965 20.2673 25.6801 20.2673 25.1886C20.2673 24.696 20.6014 24.2796 20.9965 24.2796H23.7824C23.9022 24.2796 24.0139 24.2201 24.0779 24.1226C24.1419 24.025 24.148 23.9021 24.0952 23.7988C24.0221 23.6544 23.9835 23.4886 23.9835 23.3189C23.9835 22.8264 24.3176 22.4099 24.7127 22.4099H28.6979C28.8584 22.4099 28.9975 22.3046 29.0361 22.1554C29.2169 21.4512 29.3083 20.7266 29.3083 20C29.3083 15.0377 25.1036 11 19.9362 11C15.9002 11 12.3269 13.4713 11.0454 17.1511ZM19.936 11.669C24.7194 11.669 28.6114 15.4064 28.6114 19.9999C28.6114 20.5861 28.5352 21.1693 28.4082 21.7418H24.7124C23.9263 21.7418 23.2874 22.4499 23.2874 23.3188C23.2874 23.4173 23.3047 23.5139 23.321 23.6105H20.9962C20.2101 23.6105 19.5713 24.3185 19.5713 25.1885C19.5713 26.0584 20.2101 26.7655 20.9962 26.7655H24.9815C23.5139 27.7779 21.757 28.3318 19.9349 28.3318C15.6754 28.3318 12.0731 25.3612 11.3854 21.3644H16.7671C17.5115 21.3644 18.1179 20.7227 18.1179 19.9327C18.1179 19.1427 17.5126 18.501 16.7671 18.501H15.8541C15.8591 18.4512 15.8845 18.4063 15.8845 18.3556C15.8845 17.5656 15.2792 16.9239 14.5338 16.9239H11.8992C13.2124 13.7688 16.3673 11.669 19.936 11.669ZM15.7841 18.8345C15.7841 18.8794 15.775 18.9252 15.7557 18.9672C15.775 18.9242 15.7699 18.8765 15.7841 18.8345Z" fill="black"/>
<path d="M24.7124 21.7418C23.9263 21.7418 23.2874 22.4499 23.2874 23.3188C23.2874 23.4173 23.3047 23.5139 23.321 23.6105H20.9962C20.2101 23.6105 19.5713 24.3185 19.5713 25.1885C19.5713 26.0584 20.2101 26.7655 20.9962 26.7655L27.8589 26.7656C28.645 26.7656 29.2839 26.0576 29.2839 25.1886C29.2839 25.0901 29.2666 24.9935 29.2503 24.897H31.5751C32.3612 24.897 33 24.1889 33 23.3189C33 22.449 32.3612 21.7419 31.5751 21.7419L24.7124 21.7418ZM20.2673 25.1886C20.2673 24.696 20.6014 24.2796 20.9965 24.2796H23.7824C23.9022 24.2796 24.0139 24.2201 24.0779 24.1226C24.1419 24.025 24.148 23.9021 24.0952 23.7988C24.0221 23.6544 23.9835 23.4886 23.9835 23.3189C23.9835 22.8264 24.3176 22.4099 24.7127 22.4099L31.5761 22.4101C31.9711 22.4101 32.3043 22.8265 32.3043 23.319C32.3043 23.8116 31.9701 24.228 31.5761 24.228H28.7892C28.6693 24.228 28.5576 24.2875 28.4936 24.385C28.4296 24.4825 28.4235 24.6054 28.4753 24.7088C28.5485 24.8532 28.5871 25.019 28.5871 25.1887C28.5871 25.6812 28.2529 26.0966 27.8588 26.0966L20.9965 26.0965C20.6024 26.0965 20.2673 25.6811 20.2673 25.1886Z" fill="black"/>
</svg>
